<?xml version="1.0" encoding="UTF-8"?>
<svg width="18px" height="18px" viewBox="0 0 18 18" version="1.1" xmlns="http://www.w3.org/2000/svg" xmlns:xlink="http://www.w3.org/1999/xlink">
    <!-- Generator: Sketch 49 (51002) - http://www.bohemiancoding.com/sketch -->
    <title>TASKS</title>
    <desc>Created with Sketch.</desc>
    <defs></defs>
    <g id="ESS-Home---Dashboard-widgets" stroke="none" stroke-width="1" fill="none" fill-rule="evenodd">
        <g id="ESS-Dashboard---1440px-Copy" transform="translate(-104.000000, -400.000000)" fill="#13B078" fill-rule="nonzero">
            <g id="Group-47" transform="translate(90.000000, 384.000000)">
                <g id="Group-6-Copy-3">
                    <g id="Group-46" transform="translate(13.913043, 15.000000)">
                        <g id="TASKS" transform="translate(0.000000, 1.000000)">
                            <path d="M9,0.45 C13.6941395,0.45 17.55,4.22183715 17.55,9 C17.55,13.6941395 13.6944187,17.55 9,17.55 C4.22183715,17.55 0.45,13.6944187 0.45,9 C0.45,4.22183715 4.22183715,0.45 9,0.45 Z M3.13232557,8.16255836 L3.13243723,8.16142502 L5.39615365,12.9395879 C5.64805609,13.4433537 6.40153025,13.5262325 6.73737226,13.1075117 L14.7846281,5.14427911 C15.1204701,4.72555271 14.7017493,4.38970512 14.3659073,4.64159081 L6.56932564,10.4263585 L4.55751167,7.49196301 C4.05482337,6.56946521 2.62963727,7.24006056 3.13232557,8.16255836 Z" id="Combined-Shape"></path>
                        </g>
                    </g>
                </g>
            </g>
        </g>
    </g>
</svg>