<svg width="24" height="24" viewBox="0 0 24 24" fill="none" xmlns="http://www.w3.org/2000/svg">
<path fill-rule="evenodd" clip-rule="evenodd" d="M17.0215 12.7769C17.3679 12.7156 17.7245 12.6835 18.0886 12.6835V4.61718C18.0887 4.61571 18.0881 4.61442 18.0878 4.61306C18.0876 4.6126 18.0875 4.61214 18.0875 4.61166C18.086 4.47478 18.033 4.34065 17.9324 4.23999L13.8478 0.156245L13.8473 0.155889C13.7509 0.0595432 13.6176 0 13.4705 0H2.12337C1.50391 0 1 0.503759 1 1.12309V21.6617C1 22.281 1.50387 22.7848 2.12333 22.7848H13.5373C13.2485 22.4585 12.9942 22.101 12.7803 21.7179H2.12337C2.09244 21.7179 2.06724 21.6927 2.06724 21.6618V1.12309C2.06724 1.09216 2.09244 1.06697 2.12337 1.06697H12.9369V4.02753C12.9369 4.64682 13.4408 5.15071 14.0603 5.15071H17.0215V12.7769ZM14.0041 4.02753V1.8215L16.2668 4.0837H14.0603C14.0293 4.0837 14.0041 4.05846 14.0041 4.02753ZM14.7468 7.82278C14.7469 7.52916 14.5086 7.29114 14.2148 7.29114H4.79788C4.50407 7.29114 4.26582 7.52916 4.26582 7.82278C4.26582 8.11637 4.50407 8.35443 4.79788 8.35443H14.2148C14.5086 8.35443 14.7468 8.11637 14.7468 7.82278ZM14.7468 11.0886C14.7469 10.795 14.5086 10.557 14.2148 10.557H4.79788C4.50407 10.557 4.26582 10.795 4.26582 11.0886C4.26582 11.3822 4.50407 11.6203 4.79788 11.6203H14.2148C14.5086 11.6203 14.7468 11.3822 14.7468 11.0886ZM12.7722 14.2785C12.7722 13.9849 12.5339 13.7468 12.2401 13.7468H4.79788C4.50407 13.7468 4.26582 13.9849 4.26582 14.2785C4.26582 14.5721 4.50407 14.8101 4.79788 14.8101H12.2401C12.5339 14.8101 12.7722 14.5721 12.7722 14.2785ZM12.6582 18.6076C12.6582 21.5648 15.0555 23.962 18.0127 23.962C20.9698 23.962 23.3671 21.5648 23.3671 18.6076C23.3671 15.6504 20.9698 13.2532 18.0127 13.2532C15.0555 13.2532 12.6582 15.6504 12.6582 18.6076ZM22.3797 18.6076C22.3797 21.0195 20.4245 22.9747 18.0127 22.9747C15.6008 22.9747 13.6456 21.0195 13.6456 18.6076C13.6456 16.1957 15.6008 14.2405 18.0127 14.2405C20.4245 14.2405 22.3797 16.1957 22.3797 18.6076ZM17.3106 21.0002L19.5251 16.5905C19.6276 16.3865 19.5473 16.1369 19.345 16.0328C19.1419 15.9282 18.8936 16.0102 18.7907 16.215L16.5762 20.6247C16.4737 20.8287 16.554 21.0783 16.7563 21.1824C16.8149 21.2125 16.8787 21.2278 16.9432 21.2278C17.0972 21.2278 17.2398 21.1411 17.3106 21.0002ZM16.4177 18.4941C17.1088 18.4941 17.6709 17.932 17.6709 17.2409C17.6709 16.5498 17.1088 15.9877 16.4177 15.9877C15.7266 15.9877 15.1646 16.5498 15.1646 17.2409C15.1646 17.932 15.7266 18.4941 16.4177 18.4941ZM16.8423 17.2409C16.8423 17.4749 16.6517 17.6654 16.4177 17.6654C16.1837 17.6654 15.9932 17.4749 15.9932 17.2409C15.9932 17.0069 16.1837 16.8163 16.4177 16.8163C16.6517 16.8163 16.8423 17.0069 16.8423 17.2409ZM19.7595 18.7215C20.4506 18.7215 21.0127 19.2836 21.0127 19.9747C21.0127 20.6658 20.4506 21.2279 19.7595 21.2279C19.0684 21.2279 18.5063 20.6658 18.5063 19.9747C18.5063 19.2836 19.0684 18.7215 19.7595 18.7215ZM19.7595 20.3992C19.9935 20.3992 20.184 20.2087 20.184 19.9747C20.184 19.7407 19.9935 19.5501 19.7595 19.5501C19.5255 19.5501 19.3349 19.7407 19.3349 19.9747C19.3349 20.2087 19.5255 20.3992 19.7595 20.3992Z" fill="#FF4975"/>
</svg>
