<svg width="129" height="123" viewBox="0 0 129 123" fill="none" xmlns="http://www.w3.org/2000/svg">
    <circle opacity="0.6" cx="49.2547" cy="73.7453" r="49.2547" fill="#E5E8ED"/>
    <path d="M20 24.4403C20 21.7285 22.1983 19.5303 24.91 19.5303H123.437C126.149 19.5303 128.347 21.7285 128.347 24.4403V98.09C128.347 100.802 126.149 103 123.437 103H24.91C22.1983 103 20 100.802 20 98.09V24.4403Z"
          fill="#CED3DF"/>
    <path d="M74.4549 1.17395C83.7024 1.17395 91.2411 8.89502 91.2411 18.0829C91.2411 27.2723 83.7024 34.7646 74.4549 34.7646C65.2075 34.7646 57.6688 27.1828 57.6688 17.9934C57.6688 8.80402 65.2075 1.17395 74.4549 1.17395Z"
          fill="#F0F1F6"/>
    <path fill-rule="evenodd" clip-rule="evenodd"
          d="M73.4939 1.57088V19.6481H91.0092C91.0371 19.2563 91.0513 18.8608 91.0513 18.4621C91.0513 9.2742 83.5126 1.55313 74.2652 1.55313C74.0067 1.55313 73.7496 1.55909 73.4939 1.57088Z"
          fill="#CED3DF"/>
    <path d="M82.6667 17.8613H75.3371V8.70183C75.3371 7.68811 74.5193 6.87024 73.5055 6.87024C72.4952 6.87024 71.674 7.68811 71.674 8.70183V19.6879C71.674 20.695 72.4935 21.5195 73.5055 21.5195H82.665C83.6721 21.5195 84.4932 20.7 84.4932 19.6879C84.4932 18.6759 83.6753 17.8613 82.6667 17.8613Z"
          fill="#909AB5"/>
    <path fill-rule="evenodd" clip-rule="evenodd"
          d="M74.4419 32.54C82.5042 32.54 89.04 26.0042 89.04 17.9419C89.04 9.87958 82.5042 3.34379 74.4419 3.34379C66.3796 3.34379 59.8438 9.87958 59.8438 17.9419C59.8438 26.0042 66.3796 32.54 74.4419 32.54ZM74.4419 35.3838C84.0748 35.3838 91.8838 27.5748 91.8838 17.9419C91.8838 8.309 84.0748 0.5 74.4419 0.5C64.809 0.5 57 8.309 57 17.9419C57 27.5748 64.809 35.3838 74.4419 35.3838Z"
          fill="#CED3DF"/>
    <path d="M33.0933 46.931C33.0933 45.1232 34.5588 43.6577 36.3666 43.6577H111.98C113.788 43.6577 115.254 45.1232 115.254 46.931V61.661C115.254 63.4688 113.788 64.9343 111.98 64.9343H36.3666C34.5588 64.9343 33.0933 63.4688 33.0933 61.661V46.931Z"
          fill="#E5E8ED"/>
    <path d="M33.0933 72.6265C33.0933 70.8187 34.5588 69.3532 36.3666 69.3532H111.98C113.788 69.3532 115.254 70.8187 115.254 72.6265V87.3565C115.254 89.1643 113.788 90.6298 111.98 90.6298H36.3666C34.5588 90.6298 33.0933 89.1643 33.0933 87.3565V72.6265Z"
          fill="#E5E8ED"/>
    <path d="M39.6399 54.2044C39.6399 51.9953 41.4308 50.2044 43.6399 50.2044H74.9198C77.1289 50.2044 78.9198 51.9953 78.9198 54.2044V54.3877C78.9198 56.5969 77.1289 58.3877 74.9198 58.3877H43.6399C41.4308 58.3877 39.6399 56.5969 39.6399 54.3877V54.2044Z"
          fill="#909AB5"/>
    <path d="M39.6399 79.8999C39.6399 77.6908 41.4308 75.8999 43.6399 75.8999H97.833C100.042 75.8999 101.833 77.6908 101.833 79.8999V80.0832C101.833 82.2923 100.042 84.0832 97.833 84.0832H43.6399C41.4308 84.0832 39.6399 82.2923 39.6399 80.0832V79.8999Z"
          fill="#909AB5"/>
</svg>
