<?xml version="1.0" encoding="UTF-8"?>
<svg width="21px" height="26px" viewBox="0 0 21 26" version="1.1" xmlns="http://www.w3.org/2000/svg"
     xmlns:xlink="http://www.w3.org/1999/xlink">
    <!-- Generator: Sketch 47.1 (45422) - http://www.bohemiancoding.com/sketch -->
    <title>resume</title>
    <desc>Created with Sketch.</desc>
    <defs>
        <path d="M0.456521739,0 L11.3381739,0 C11.4596087,0 11.5758696,0.0486956522 11.6616957,0.135434783 L15.9487391,4.45930435 C16.0330435,4.54482609 16.0805217,4.66017391 16.0805217,4.7803913 L16.0805217,12.6006087 C18.8315217,13.3057826 20.874,15.7986957 20.874,18.7673043 C20.874,22.2806957 18.0155652,25.1400435 14.5012609,25.1400435 C12.1011739,25.1400435 10.0087826,23.8045652 8.92226087,21.8393913 L0.456521739,21.8393913 C0.204521739,21.8393913 0,21.6348696 0,21.3828696 L0,0.456521739 C0,0.204521739 0.204521739,0 0.456521739,0 Z M0.913043478,0.91273913 L0.913043478,20.9260435 L8.51443478,20.9260435 C8.26943478,20.251 8.12943478,19.5257391 8.13034783,18.766087 C8.13034783,15.2526957 10.9887826,12.3936522 14.503087,12.3936522 C14.7276957,12.3936522 14.9501739,12.4064348 15.1686957,12.4292609 L15.1686957,5.2366087 L11.3381739,5.2366087 C11.0861739,5.2366087 10.8816522,5.03208696 10.8816522,4.78008696 L10.8816522,0.91273913 L0.913043478,0.91273913 Z M11.7946957,1.56556522 L11.7946957,4.32356522 L14.5289565,4.32356522 L11.7946957,1.56556522 Z M9.04247826,18.767 C9.04247826,21.777 11.4915652,24.2266957 14.5018696,24.2266957 C17.5121739,24.2266957 19.9612609,21.777 19.9612609,18.767 C19.9612609,15.7566957 17.5121739,13.3073043 14.5018696,13.3073043 C11.4915652,13.3073043 9.04247826,15.7566957 9.04247826,18.767 Z M2.9043913,6.33195652 L13.1761304,6.33195652 C13.4281304,6.33195652 13.6326522,6.53617391 13.6326522,6.78817391 C13.6326522,7.04017391 13.4281304,7.245 13.1761304,7.245 L2.9043913,7.245 C2.6523913,7.245 2.44786957,7.04169565 2.44786957,6.78817391 C2.44786957,6.53617391 2.6523913,6.33195652 2.9043913,6.33195652 Z M2.9043913,8.90217391 L13.1761304,8.90217391 C13.4281304,8.90217391 13.6326522,9.10669565 13.6326522,9.35869565 C13.6326522,9.61069565 13.4281304,9.81521739 13.1761304,9.81521739 L2.9043913,9.81521739 C2.6523913,9.81521739 2.44786957,9.61069565 2.44786957,9.35869565 C2.44786957,9.10669565 2.6523913,8.90217391 2.9043913,8.90217391 Z M2.9043913,11.2048696 L11.3500435,11.2048696 C11.6023478,11.2048696 11.8065652,11.4093913 11.8065652,11.6613913 C11.8065652,11.9133913 11.6023478,12.117913 11.3500435,12.117913 L2.9043913,12.117913 C2.6523913,12.117913 2.44786957,11.9133913 2.44786957,11.6613913 C2.44786957,11.4093913 2.6523913,11.2048696 2.9043913,11.2048696 Z M2.9043913,13.5078696 L8.30656522,13.5078696 C8.55856522,13.5078696 8.76308696,13.712087 8.76308696,13.9643913 C8.76308696,14.2163913 8.55856522,14.420913 8.30656522,14.420913 L2.9043913,14.420913 C2.6523913,14.420913 2.44786957,14.2163913 2.44786957,13.9643913 C2.44786957,13.712087 2.6523913,13.5078696 2.9043913,13.5078696 Z M14.0453478,15.5908261 C14.0453478,15.3388261 14.2495652,15.134 14.5018696,15.134 C14.7538696,15.134 14.958087,15.3388261 14.958087,15.5908261 L14.958087,18.3107826 L17.6783478,18.3107826 C17.9303478,18.3107826 18.1348696,18.5153043 18.1348696,18.7673043 C18.1348696,19.0193043 17.9303478,19.2238261 17.6783478,19.2238261 L14.958087,19.2238261 L14.958087,21.9437826 C14.958087,22.1957826 14.7538696,22.4006087 14.5018696,22.4006087 C14.2495652,22.4006087 14.0453478,22.1957826 14.0453478,21.9437826 L14.0453478,19.2238261 L11.325087,19.2238261 C11.073087,19.2238261 10.8688696,19.0193043 10.8688696,18.7673043 C10.8688696,18.5153043 11.073087,18.3107826 11.325087,18.3107826 L14.0453478,18.3107826 L14.0453478,15.5908261 Z M2.9043913,15.8105652 L6.79913043,15.8105652 C7.05113043,15.8105652 7.25565217,16.015087 7.25565217,16.267087 C7.25565217,16.5193913 7.05113043,16.7236087 6.79913043,16.7236087 L2.9043913,16.7236087 C2.6523913,16.7236087 2.44786957,16.5193913 2.44786957,16.267087 C2.44786957,16.015087 2.6523913,15.8105652 2.9043913,15.8105652 Z"
              id="path-1"></path>
    </defs>
    <g id="ESS-Timesheets" stroke="none" stroke-width="1" fill="none" fill-rule="evenodd">
        <g id="resume">
            <mask id="mask-2" fill="white">
                <use xlink:href="#path-1"></use>
            </mask>
            <g id="Clip-2"></g>
            <polygon id="Fill-1" fill="#0096EB" mask="url(#mask-2)"
                     points="-1.52173913 26.6614783 22.3957391 26.6614783 22.3957391 -1.52204348 -1.52173913 -1.52204348"></polygon>
        </g>
    </g>
</svg>