<?xml version="1.0" encoding="UTF-8"?>
<svg width="25px" height="27px" viewBox="0 0 25 27" version="1.1" xmlns="http://www.w3.org/2000/svg" xmlns:xlink="http://www.w3.org/1999/xlink">
    <!-- Generator: Sketch 47.1 (45422) - http://www.bohemiancoding.com/sketch -->
    <title>geofence-grey</title>
    <desc>Created with Sketch.</desc>
    <defs></defs>
    <g id="Page-1" stroke="none" stroke-width="1" fill="none" fill-rule="evenodd">
        <g id="Work-Location-Details" transform="translate(-1875.000000, -73.000000)" fill-rule="nonzero" fill="#A7AFC1">
            <g id="geofence-grey" transform="translate(1874.966011, 73.558590)">
                <path d="M23.4283397,2.42166228 L17.8905331,3.337124 L14.4586613,2.74185787 C14.7025496,3.18801896 14.8655266,3.66193567 15.0077075,4.16011634 L17.7078136,4.6178472 L17.6615789,12.9921708 L15.0990081,13.2672679 L14.2748617,9.8353961 C14.2679264,9.84579913 14.234406,9.87354083 14.228627,9.88163079 L13.8171456,10.6133078 L14.5488226,13.7250136 C14.5869673,13.8822115 14.7094885,13.9723699 14.8689886,13.9538761 L17.6604101,13.6337101 L17.6604101,16.8827144 L12.7179583,17.523076 L12.764193,12.4442135 L12.0776115,13.5422763 L12.0776115,17.6144802 L6.86115452,19.7204742 L6.86115452,17.2954682 L6.17457302,16.1060899 L1.50731018,16.8377669 L1.50731018,3.84115761 C1.60440156,3.85733961 1.75928852,3.86889843 1.87372568,3.88739231 C2.02051972,3.44930934 2.1950457,3.04590609 2.42277191,2.65176458 C1.91766713,2.56854213 1.18137409,2.4517999 1.00451344,2.42290211 C0.616142018,2.36048453 0.226616576,2.67025846 0.226616576,3.06326371 L0.226616576,24.7543626 C0.226616576,25.0641424 0.42427026,25.3415506 0.729413318,25.3947242 L6.40363079,26.3564058 L6.67872796,26.3564058 L12.2165346,25.3947242 L17.7543412,26.3564058 L18.0294384,26.3564058 L23.7048395,25.3947242 C24.0099737,25.3415535 24.2076362,25.0641424 24.2076362,24.7543626 L24.2064804,3.0620801 C24.2064804,2.6690926 23.816955,2.35931276 23.4285836,2.4217185 L23.4283397,2.42166228 Z M6.17458782,24.983009 L1.50732498,24.1588627 L1.50732498,21.229906 L6.17458782,20.5433245 L6.17458782,24.983009 Z M6.22082251,19.9491236 L1.50710305,20.5894852 L1.50710305,17.4777793 L6.22082251,16.6998825 L6.22082251,19.9491236 Z M12.0326344,24.1124652 L6.8149938,25.027927 L6.8161496,20.3606641 L12.0787673,18.3009196 L12.0326344,24.1124652 Z M17.6166018,25.027927 L12.6729664,24.1587147 L12.7192011,18.1631476 L17.6616529,17.522786 L17.6166018,25.027927 Z M22.9244925,24.1587147 L18.2572297,24.9828611 L18.3034644,17.3403033 L22.9257501,15.8758249 L22.9244925,24.1587147 Z M22.9244925,15.1893322 L18.3022068,16.6538105 L18.3022068,13.4056939 L22.9244925,11.2095385 L22.9244925,15.1893322 Z M22.9244925,10.5220693 L18.3022068,12.7644446 L18.3484415,4.61914917 L22.9245665,3.8412523 L22.9244925,10.5220693 Z" id="Shape"></path>
                <path d="M3.54046788,9.3232814 L8.40332197,17.7866715 L13.2673597,9.3232814 C13.3424921,9.21231814 13.4072207,9.09557591 13.4731033,8.97882184 L13.520495,8.9106253 C13.9967197,8.06221498 14.2764359,7.08665555 14.2764359,6.04292029 C14.2764359,2.79953806 11.6468433,0.171040255 8.40455588,0.171040255 C5.16117364,0.171040255 2.53267584,2.79947887 2.53267584,6.04292029 C2.53267584,7.08550153 2.812395,8.06106096 3.2897708,8.9106253 C3.3660573,9.05164037 3.44927975,9.19034445 3.54059512,9.32326069 L3.54046788,9.3232814 Z M8.40332197,3.1069714 C10.0250131,3.1069714 11.3403864,4.42234472 11.3403864,6.04403584 C11.3403864,7.66572696 10.0250131,8.97994627 8.40332197,8.97994627 C6.78163085,8.97994627 5.46625752,7.66572696 5.46625752,6.04403584 C5.46625752,4.42234472 6.78163085,3.1069714 8.40332197,3.1069714 Z" id="Shape"></path>
            </g>
        </g>
    </g>
</svg>