<svg xmlns="http://www.w3.org/2000/svg" xmlns:xlink="http://www.w3.org/1999/xlink" width="332" height="281" viewBox="0 0 332 281">
    <defs>
        <path id="a" d="M47.923 90.073H238.14c13.807 0 25-11.193 25-25V25c0-13.807-11.193-25-25-25H25C11.193 0 0 11.193 0 25v40.073c0 13.56 10.796 24.599 24.262 24.99l11.836 12.2 11.825-12.19z"/>
        <mask id="c" width="263.141" height="102.263" x="0" y="0" fill="#fff">
            <use xlink:href="#a"/>
        </mask>
        <ellipse id="d" cx="17.88" cy="17.947" rx="17.88" ry="17.947"/>
        <path id="b" d="M36.217 67.907h147.648c8.284 0 15-6.716 15-15V15c0-8.284-6.716-15-15-15H15C6.716 0 0 6.716 0 15v37.907c0 8.284 6.716 15 15 15h3.343l8.937 9.19 8.937-9.19z"/>
        <mask id="f" width="198.865" height="77.097" x="0" y="0" fill="#fff">
            <use xlink:href="#b"/>
        </mask>
        <ellipse id="g" cx="13.52" cy="13.74" rx="13.52" ry="13.74"/>
    </defs>
    <g fill="none" fill-rule="evenodd">
        <g fill="#C7CBD4" transform="translate(26)">
            <circle cx="140.5" cy="140.5" r="140.5" fill-opacity=".1"/>
            <circle cx="140.858" cy="140.858" r="113.619" fill-opacity=".15"/>
            <circle cx="140.858" cy="140.858" r="87.096" fill-opacity=".15"/>
        </g>
        <g transform="translate(0 70)">
            <use fill="#FEFEFE" stroke="#E3E5EC" stroke-dasharray="5,3" stroke-width="2" mask="url(#c)" xlink:href="#a"/>
            <g transform="translate(20.916 23.703)">
                <mask id="e" fill="#fff">
                    <use xlink:href="#d"/>
                </mask>
                <use fill="#C7CBD4" xlink:href="#d"/>
                <ellipse cx="18.224" cy="33.478" fill="#E3E5EB" mask="url(#e)" rx="12.722" ry="12.77"/>
                <ellipse cx="18.224" cy="15.358" fill="#E3E5EB" mask="url(#e)" rx="5.158" ry="5.004"/>
                <rect width="56.002" height="9.481" x="46.556" y="4.741" fill="#C7CBD4" rx="3"/>
                <rect width="175.427" height="4.063" x="46.556" y="23.026" fill="#E3E5EB" rx="2.032"/>
                <rect width="167.331" height="4.063" x="46.556" y="29.799" fill="#E3E5EB" rx="2.032"/>
                <rect width="116.052" height="4.063" x="46.556" y="36.571" fill="#E3E5EB" rx="2.032"/>
            </g>
        </g>
        <g transform="matrix(-1 0 0 1 332 143.343)">
            <use fill="#F5F5F5" stroke="#E3E5EC" stroke-dasharray="5,3" stroke-width="2" mask="url(#f)" xlink:href="#b"/>
            <g transform="translate(16.179 17.584)">
                <mask id="h" fill="#fff">
                    <use xlink:href="#g"/>
                </mask>
                <use fill="#C7CBD4" xlink:href="#g"/>
                <ellipse cx="13.78" cy="25.63" fill="#E3E5EB" mask="url(#h)" rx="9.62" ry="9.777"/>
                <ellipse cx="13.78" cy="11.758" fill="#E3E5EB" mask="url(#h)" rx="3.9" ry="3.831"/>
                <rect width="74.21" height="7.259" x="93.646" y="3.629" fill="#C7CBD4" rx="3"/>
                <rect width="132.652" height="3.111" x="35.204" y="17.629" fill="#E3E5EB" rx="1.555"/>
                <rect width="126.529" height="3.111" x="41.326" y="22.814" fill="#E3E5EB" rx="1.555"/>
                <rect width="87.754" height="3.111" x="80.101" y="27.999" fill="#E3E5EB" rx="1.555"/>
            </g>
        </g>
    </g>
</svg>
