<svg width="24" height="24" viewBox="0 0 24 24" fill="none" xmlns="http://www.w3.org/2000/svg">
<g clip-path="url(#clip0)">
<path d="M21.0664 7.22132L19.7773 8.51038L19.1328 7.86585V3.57812C19.1328 2.14361 17.9279 1 16.5117 1H3.57812C2.15655 1 1 2.15655 1 3.57812V21.0266L2.93359 23L4.22266 21.6925L5.51172 23L6.80078 21.6925L8.08984 23L9.37891 21.6925L10.668 23L11.957 21.6925L13.2461 23L15.1797 21.0264V20.3789H20.4219C21.8435 20.3789 23 19.2224 23 17.8008V9.15491L21.0664 7.22132ZM13.8906 20.5048L13.2461 21.1708L11.957 19.8388L10.668 21.1708L9.37891 19.8388L8.08984 21.1708L6.80078 19.8388L5.51172 21.1708L4.22266 19.8388L2.93359 21.1708L2.28906 20.5049V3.57812C2.28906 2.86734 2.86734 2.28906 3.57812 2.28906H14.2462C14.0146 2.67759 13.8906 3.11888 13.8906 3.57812V20.5048ZM15.1797 3.57812C15.1797 2.87937 15.7897 2.28906 16.5117 2.28906C17.2338 2.28906 17.8438 2.87937 17.8438 3.57812C17.8438 3.67644 17.8438 17.8008 17.8438 17.8008C17.8438 18.2702 17.9705 18.7103 18.1906 19.0898H15.1797V3.57812ZM21.7109 17.8008C21.7109 18.5116 21.1327 19.0898 20.4219 19.0898C19.7111 19.0898 19.1328 18.5116 19.1328 17.8008C19.1328 17.6056 19.1328 9.78178 19.1328 9.68884L19.7773 10.3334L21.0664 9.04431L21.7109 9.68884V17.8008Z" fill="#FFB118"/>
<path d="M11.957 16.5117H4.22266C3.86669 16.5117 3.57812 16.8003 3.57812 17.1562C3.57812 17.5122 3.86669 17.8008 4.22266 17.8008H11.957C12.313 17.8008 12.6016 17.5122 12.6016 17.1562C12.6016 16.8003 12.313 16.5117 11.957 16.5117Z" fill="#FFB118"/>
<path d="M202.32 -237.573H-80.355C-116.57 -237.573 -146.035 -208.11 -146.035 -171.895V-124.378H-244V121.524C-244 157.739 -214.536 187.202 -178.32 187.202H-48.066V273.571H-31.37H251.305H268V-171.894C268 -208.109 238.536 -237.573 202.32 -237.573ZM-146.033 121.525C-146.033 139.328 -160.517 153.812 -178.32 153.812C-196.123 153.812 -210.608 139.328 -210.608 121.525V-90.986H-146.033V121.525ZM-48.065 153.814H-121.16C-115.748 144.272 -112.642 133.258 -112.642 121.527V-171.894C-112.642 -189.697 -98.157 -204.181 -80.354 -204.181C-62.551 -204.181 -48.066 -189.697 -48.066 -171.894V153.814H-48.065ZM234.609 240.181H-14.675V-171.894C-14.675 -183.622 -17.764 -194.641 -23.173 -204.181H202.32C220.123 -204.181 234.608 -189.697 234.608 -171.894V240.181H234.609Z" fill="#FFB118"/>
<path d="M11.957 13.9336H4.22266C3.86669 13.9336 3.57812 14.2222 3.57812 14.5781C3.57812 14.9341 3.86669 15.2227 4.22266 15.2227H11.957C12.313 15.2227 12.6016 14.9341 12.6016 14.5781C12.6016 14.2222 12.313 13.9336 11.957 13.9336Z" fill="#FFB118"/>
<path d="M8.08295 10.2552C7.72756 10.2552 7.43842 9.96603 7.43842 9.61064H6.14935C6.14935 10.4534 6.69158 11.1716 7.44534 11.4357V12.6445H8.7344V11.4311C9.48098 11.1631 10.0165 10.4484 10.0165 9.61068C10.0165 8.5445 9.14914 7.67709 8.08295 7.67709C7.72756 7.67709 7.43842 7.38795 7.43842 7.03255C7.43842 6.67716 7.72756 6.38802 8.08295 6.38802C8.43835 6.38802 8.72748 6.67716 8.72748 7.03255H10.0165C10.0165 6.19488 9.48098 5.48018 8.7344 5.21218V3.57812H7.44534V5.20746C6.69158 5.47159 6.14935 6.18972 6.14935 7.03251C6.14935 8.0987 7.01676 8.96611 8.08295 8.96611C8.43835 8.96611 8.72748 9.25524 8.72748 9.61064C8.72748 9.96603 8.43835 10.2552 8.08295 10.2552Z" fill="#FFB118"/>
</g>
<defs>
<clipPath id="clip0">
<rect width="24" height="24" fill="white"/>
</clipPath>
</defs>
</svg>
