<?xml version="1.0" encoding="UTF-8"?>
<svg width="20px" height="17px" viewBox="0 0 20 17" version="1.1" xmlns="http://www.w3.org/2000/svg" xmlns:xlink="http://www.w3.org/1999/xlink">
    <!-- Generator: Sketch 49 (51002) - http://www.bohemiancoding.com/sketch -->
    <title>feed</title>
    <desc>Created with Sketch.</desc>
    <defs></defs>
    <g id="ESS-Home---Employee" stroke="none" stroke-width="1" fill="none" fill-rule="evenodd">
        <g id="ESS-Dashboard---Employee-view-(1440px)-" transform="translate(-446.000000, -458.000000)" fill="#13B078" fill-rule="nonzero">
            <g id="Group-39" transform="translate(430.000000, 445.000000)">
                <g id="Group-28-Copy-3">
                    <g id="Group-18">
                        <g id="Group-12">
                            <g id="Group-11">
                                <g id="feed" transform="translate(16.843558, 13.000000)">
                                    <path d="M9.96381421,0 L4.89722071,0 C2.19698287,0 0,2.23127788 0,4.97584839 L0,6.33377776 C0,8.4729548 1.34056131,10.365657 3.33290124,11.0463276 L3.52948575,11.1125471 L3.42623813,11.295281 C3.15944955,11.761343 2.80015087,12.4922699 2.32271414,13.531709 C2.26572158,13.6557661 2.29132626,13.8066381 2.38631458,13.9030521 C2.4813029,13.999449 2.63164081,14.0271093 2.7522317,13.9717866 L8.48870409,11.3087592 L9.96474248,11.3087592 C12.6649803,11.3087592 14.8619632,9.07748133 14.8619632,6.33462752 L14.8619632,4.97669815 C14.8611373,2.23148389 12.6639231,0.000206003728 9.96389667,0.000206003728 L9.96381421,0 Z M3.60207922,6.70585053 C3.09328421,6.70585053 2.67945214,6.28590335 2.67945214,5.76870524 C2.67945214,5.25236548 3.09326307,4.83239683 3.60207922,4.83239683 C4.11089538,4.83239683 4.5247063,5.25234402 4.5247063,5.76870524 C4.52553223,6.285045 4.11089538,6.70585053 3.60207922,6.70585053 Z M7.42977738,6.70585053 C6.92098237,6.70585053 6.5071503,6.28590335 6.5071503,5.76870524 C6.5071503,5.25236548 6.92096122,4.83239683 7.42977738,4.83239683 C7.93859353,4.83239683 8.35240446,5.25234402 8.35240446,5.76870524 C8.35323039,6.285045 7.9394182,6.70585053 7.42977738,6.70585053 Z M11.2581099,6.70585053 C10.7493149,6.70585053 10.3354828,6.28590335 10.3354828,5.76870524 C10.3354828,5.25236548 10.7492937,4.83239683 11.2581099,4.83239683 C11.766926,4.83239683 12.180737,5.25234402 12.180737,5.76870524 C12.180737,6.28506646 11.766926,6.70585053 11.2581099,6.70585053 Z" id="Shape"></path>
                                    <path d="M6.42975307,12.7670042 L6.06131799,12.9409522 C5.92315484,13.0062886 5.90341725,13.2014463 6.02595454,13.2947871 C6.83354318,13.909116 7.82783366,14.2739858 8.90522205,14.2739858 L10.3732148,14.2739858 L16.0864849,16.9705946 C16.2049105,17.0274462 16.3554004,17.0002933 16.4499935,16.9027123 C16.5453908,16.8042841 16.5708865,16.652406 16.513318,16.5268076 C16.0379736,15.4746218 15.6785915,14.733869 15.4137603,14.2620385 L15.3109606,14.0779071 L15.5058691,14.0100248 C17.4911447,13.3218618 18.8251534,11.4042154 18.8251534,9.23871732 L18.8251534,7.86410721 C18.8251534,5.54003622 17.2905476,3.58328967 15.2140685,3.00721375 C15.0635702,2.96563505 14.9278682,3.11073363 14.9722909,3.26431912 C15.0101218,3.39584125 15.0438389,3.52907076 15.0726232,3.66396636 C15.0742681,3.66481483 15.0750904,3.66481483 15.0759127,3.66481483 C15.0742681,3.66396636 15.0734457,3.66396636 15.0718008,3.66311767 C15.1540397,4.05003563 15.2000962,4.45139893 15.2000962,4.86462262 L15.2000962,6.23923273 C15.2000962,9.32032656 12.7797935,11.8175244 9.7935746,11.8175244 L8.44400744,11.8175244" id="Shape"></path>
                                </g>
                            </g>
                        </g>
                    </g>
                </g>
            </g>
        </g>
    </g>
</svg>