<svg width="24" height="24" viewBox="0 0 24 24" fill="none" xmlns="http://www.w3.org/2000/svg">
<path d="M22.9283 7.25531L20.809 5.71411C20.5763 5.54507 20.2497 5.59516 20.0806 5.82891C19.9106 6.06159 19.9617 6.38716 20.1954 6.55728L22.3148 8.09848C22.7165 8.39063 22.9565 8.87272 22.9565 9.38924V20.8206C22.9565 21.6835 22.2949 22.3858 21.4821 22.3858H2.51789C1.70501 22.3858 1.04346 21.6835 1.04346 20.8206V9.38919C1.04346 8.87267 1.28348 8.39059 1.6852 8.09735L3.82642 6.5405C4.05909 6.37146 4.11129 6.04486 3.94121 5.81214C3.77217 5.57946 3.44661 5.52727 3.21285 5.69734L1.07164 7.25419C0.400695 7.74259 0 8.54085 0 9.38919V20.8205C0 22.2584 1.12906 23.4292 2.51789 23.4292H21.4821C22.8699 23.4292 24 22.2584 24 20.8205V9.38919C24 8.53982 23.5993 7.74156 22.9283 7.25531Z" fill="#1DC5C5"/>
<path d="M16.5913 2.64415L15.1565 1.60069C13.2679 0.227462 10.7322 0.227462 8.84348 1.60069L7.39198 2.65668C7.15823 2.82572 7.10711 3.15231 7.27616 3.38607C7.37843 3.52694 7.53701 3.60104 7.69876 3.60104C7.8052 3.60104 7.91266 3.56763 8.00555 3.50086L9.45704 2.44381C10.9784 1.33774 13.0216 1.33774 14.543 2.44381L15.9777 3.48727C16.2104 3.65528 16.536 3.6052 16.7061 3.37247C16.8762 3.13979 16.8251 2.8132 16.5913 2.64415Z" fill="#1DC5C5"/>
<path d="M21.8244 10.0967C21.6647 9.85562 21.3412 9.79198 21.1012 9.95164L14.3489 14.4522C12.9214 15.4038 11.0766 15.4038 9.64908 14.4522L2.89668 9.95164C2.65564 9.79198 2.33218 9.8567 2.17355 10.0967C2.0139 10.3367 2.07861 10.6601 2.31858 10.8198L9.07092 15.3203C9.96099 15.9141 10.9805 16.2104 12 16.2104C13.0195 16.2104 14.0389 15.913 14.9269 15.3203L21.6793 10.8198C21.9193 10.6601 21.984 10.3367 21.8244 10.0967Z" fill="#1DC5C5"/>
<path d="M20.3478 2.5596H3.65219C3.36419 2.5596 3.13043 2.79331 3.13043 3.08131V10.9074C3.13043 11.1954 3.36419 11.4291 3.65219 11.4291C3.94019 11.4291 4.17394 11.1954 4.17394 10.9074V3.60306H19.8261V10.9074C19.8261 11.1954 20.0599 11.4291 20.3479 11.4291C20.6359 11.4291 20.8696 11.1954 20.8696 10.9074V3.08131C20.8696 2.79331 20.6358 2.5596 20.3478 2.5596Z" fill="#1DC5C5"/>
<path d="M12.072 7.7812C12.0699 7.7812 11.9645 7.76765 11.9624 7.76765C10.4525 7.58295 10.4348 7.25841 10.4348 7.25528C10.4348 7.12483 10.9899 6.73353 12.001 6.73353C12.9767 6.73353 13.5496 7.10292 13.5683 7.25421C13.6049 7.5401 13.8626 7.73732 14.1516 7.70709C14.4375 7.67055 14.641 7.4097 14.6045 7.1238C14.4991 6.29321 13.4045 5.69006 12.001 5.69006C10.513 5.69006 9.39125 6.36311 9.39125 7.25528C9.39125 8.50433 11.1672 8.72135 11.9311 8.81424L12.0417 8.82886C13.5474 9.01459 13.5652 9.33913 13.5652 9.34226C13.5652 9.44556 13.0622 9.86401 11.9989 9.86401C11.0232 9.86401 10.4504 9.49462 10.4316 9.34333C10.395 9.05744 10.1332 8.85914 9.84829 8.89045C9.5624 8.92698 9.35892 9.18784 9.39541 9.47373C9.50082 10.3043 10.5954 10.9075 11.9989 10.9075C13.4869 10.9075 14.6087 10.2344 14.6087 9.34226C14.6087 8.09316 12.8358 7.87614 12.072 7.7812Z" fill="#1DC5C5"/>
<path d="M12 4.64664C11.712 4.64664 11.4782 4.88039 11.4782 5.16839V11.4293C11.4782 11.7173 11.712 11.951 12 11.951C12.288 11.951 12.5217 11.7173 12.5217 11.4293V5.16839C12.5217 4.88039 12.288 4.64664 12 4.64664Z" fill="#1DC5C5"/>
<path d="M16.1739 12.9944H7.30432C7.01632 12.9944 6.78256 13.2282 6.78256 13.5162C6.78256 13.8042 7.01632 14.038 7.30432 14.038H16.1739C16.4619 14.038 16.6956 13.8042 16.6956 13.5162C16.6956 13.2282 16.4619 12.9944 16.1739 12.9944Z" fill="#1DC5C5"/>
</svg>
