<?xml version="1.0" encoding="UTF-8"?>
<svg width="17px" height="16px" viewBox="0 0 17 16" version="1.1" xmlns="http://www.w3.org/2000/svg" xmlns:xlink="http://www.w3.org/1999/xlink">
    <!-- Generator: Sketch 49 (51002) - http://www.bohemiancoding.com/sketch -->
    <title>UPCOMING TIME OFF</title>
    <desc>Created with Sketch.</desc>
    <defs></defs>
    <g id="ESS-Home---Dashboard-widgets" stroke="none" stroke-width="1" fill="none" fill-rule="evenodd">
        <g id="ESS-Dashboard---1440px-Copy" transform="translate(-1113.000000, -406.000000)" fill="#13B078" fill-rule="nonzero">
            <g id="Group-33-Copy-5" transform="translate(1096.000000, 389.000000)">
                <g id="UPCOMING-TIME-OFF" transform="translate(17.943925, 17.000000)">
                    <path d="M7.78552766,5.53195012e-16 C5.7204943,5.53195012e-16 3.74016749,0.82051676 2.28038105,2.28038105 C0.820594615,3.74024534 3.55271368e-15,5.72065001 3.55271368e-15,7.78552766 C3.55271368e-15,9.8504053 0.82051676,11.8308878 2.28038105,13.2906743 C3.74024534,14.7504607 5.72065001,15.5710553 7.78552766,15.5710553 C9.8504053,15.5710553 11.8308878,14.7505386 13.2906743,13.2906743 C14.7504607,11.83081 15.5710553,9.8504053 15.5710553,7.78552766 C15.5710553,5.72065001 14.7505386,3.74016749 13.2906743,2.28038105 C11.83081,0.820594615 9.8504053,0 7.78552766,5.53195012e-16 Z M10.8461743,11.5372177 L7.44000594,8.13104938 C7.3487689,8.03920506 7.29828442,7.91512555 7.29889325,7.7855588 L7.29888781,2.91960401 L8.27208421,2.91960401 L8.27208421,7.58609358 L11.5371788,10.8463611 L10.8461743,11.5372177 Z" id="Shape"></path>
                </g>
            </g>
        </g>
    </g>
</svg>