<svg width="136" height="157" viewBox="0 0 136 157" fill="none" xmlns="http://www.w3.org/2000/svg">
<circle opacity="0.6" cx="69.6923" cy="70.1117" r="65.6923" fill="#E5E8ED"/>
<path d="M113.379 130.497L47.1028 122.709C42.2351 122.147 38.7527 117.729 39.3519 112.861L50.323 19.3627C50.8847 14.4949 55.3031 11.0126 60.1708 11.6117L126.447 19.4001C131.315 19.9618 134.797 24.3802 134.198 29.248L123.189 122.709C122.628 127.576 118.247 131.059 113.379 130.497Z" fill="#C7CDDB"/>
<path d="M55.0059 17.5625L45.9788 117.624L120.642 124.359L129.669 24.2984L55.0059 17.5625Z" fill="#E5E8ED"/>
<path d="M57.7271 16.9024L44.6191 115.182L117.995 124.969L131.103 26.6888L57.7271 16.9024Z" fill="white"/>
<path d="M111.889 20.1568L113.012 10.571L110.092 10.234C107.546 4.84207 102.378 0.87298 96.0502 0.124096C89.7221 -0.624789 83.7685 2.0712 80.0615 6.71428L77.3655 6.41472L76.2422 16.0004L111.889 20.1568Z" fill="#B7BDCA"/>
<path d="M101.529 55.3839L113.814 52.514C111.85 47.2155 108.164 42.4172 102.956 39.1763C97.5342 35.8342 91.3825 34.5972 85.4908 35.407C86.4699 39.4543 87.4153 43.5732 88.3944 47.6205C91.1527 47.5208 93.8938 48.2002 96.407 49.7343C98.7055 51.1672 100.414 53.1094 101.529 55.3839Z" fill="#C1C7D4"/>
<path d="M92.8275 75.3356C89.1002 76.3781 85.0199 75.9423 81.5005 73.7592C75.468 70.042 73.2021 62.4146 76.0983 56.0826L65.4688 49.4996C59.0281 61.6831 63.0293 76.9502 74.9175 84.3887C81.3457 88.3798 88.8704 89.3017 95.6595 87.5154C94.7141 83.3965 93.735 79.3492 92.8275 75.3356Z" fill="#909AB5"/>
<path d="M77.0467 54.2553C79.2298 50.736 82.684 48.6027 86.4195 47.914C85.4404 43.8667 84.5328 39.8531 83.5537 35.8058C76.6848 37.2046 70.4461 41.3493 66.4887 47.706L77.0467 54.2553Z" fill="#C6CBD6"/>
<path d="M114.462 54.4809L102.282 57.313C103.539 61.1414 103.217 65.5376 100.861 69.2379C99.3268 71.7511 97.1741 73.5355 94.6511 74.6207C95.5965 78.7396 96.5756 82.7869 97.521 86.9058C103.068 84.9715 108.077 81.2094 111.49 75.821C115.654 69.2117 116.534 61.4049 114.462 54.4809Z" fill="#CED3DF"/>
<path d="M1.82518 95.2602C1.8979 95.0208 1.85196 94.7846 1.68738 94.5515C1.73331 94.7877 1.77925 95.024 1.82518 95.2602Z" fill="#EDB48E"/>
<path d="M57.9659 78.5337L13.1323 89.2314L16.3646 102.778L61.1981 92.08L57.9659 78.5337Z" fill="#DFDFDF"/>
<path d="M17.5073 100.919L14.6332 88.8733L13.1323 89.2314L16.3646 102.778L61.1981 92.08L60.84 90.5791L17.5073 100.919Z" fill="#DFDFDF"/>
<path d="M28.0749 81.9645L14.2592 85.2611C13.6435 85.408 13.0623 85.0179 12.9246 84.4406C12.7777 83.8249 13.1678 83.2437 13.745 83.106L27.5607 79.8095C28.1764 79.6625 28.7576 80.0526 28.8953 80.6299C29.0423 81.2456 28.6906 81.8176 28.0749 81.9645Z" fill="#DFDFDF"/>
<path d="M61.859 94.8507L17.0255 105.548L28.1088 151.998L72.9424 141.301L61.859 94.8507Z" fill="#DFDFDF"/>
<path d="M28.4136 107.59L21.4095 109.261L23.0808 116.265L30.0848 114.594L28.4136 107.59Z" fill="#DFDFDF"/>
<path d="M38.8042 105.111L31.8002 106.782L33.4714 113.786L40.4754 112.115L38.8042 105.111Z" fill="#DFDFDF"/>
<path d="M49.2333 102.623L42.2292 104.294L43.9005 111.298L50.9045 109.627L49.2333 102.623Z" fill="#DFDFDF"/>
<path d="M59.6238 100.143L52.6198 101.814L54.291 108.818L61.295 107.147L59.6238 100.143Z" fill="#DFDFDF"/>
<path d="M30.8745 117.904L23.8705 119.575L25.5417 126.579L32.5457 124.908L30.8745 117.904Z" fill="#DFDFDF"/>
<path d="M41.2653 115.424L34.2612 117.096L35.9325 124.1L42.9365 122.429L41.2653 115.424Z" fill="#DFDFDF"/>
<path d="M51.6942 112.936L44.6902 114.607L46.3614 121.611L53.3654 119.94L51.6942 112.936Z" fill="#DFDFDF"/>
<path d="M62.0847 110.457L55.0807 112.128L56.7519 119.132L63.7559 117.461L62.0847 110.457Z" fill="#DFDFDF"/>
<path d="M33.3264 128.179L26.3224 129.85L27.9936 136.854L34.9976 135.183L33.3264 128.179Z" fill="#DFDFDF"/>
<path d="M43.7168 125.7L36.7128 127.371L38.384 134.375L45.388 132.704L43.7168 125.7Z" fill="#DFDFDF"/>
<path d="M54.146 123.211L47.142 124.882L48.8132 131.886L55.8172 130.215L54.146 123.211Z" fill="#DFDFDF"/>
<path d="M64.5364 120.732L57.5323 122.403L61.6645 139.721L68.6685 138.05L64.5364 120.732Z" fill="#DFDFDF"/>
<path d="M35.7871 138.492L28.7831 140.164L30.4543 147.168L37.4583 145.497L35.7871 138.492Z" fill="#DFDFDF"/>
<path d="M46.1776 136.013L39.1736 137.685L40.8448 144.689L47.8488 143.017L46.1776 136.013Z" fill="#DFDFDF"/>
<path d="M56.6068 133.525L49.6028 135.196L51.274 142.2L58.278 140.529L56.6068 133.525Z" fill="#DFDFDF"/>
<path d="M72.4215 144.232L26.8568 155.104C24.8941 155.572 22.9013 154.38 22.4238 152.379L5.63816 82.0305C5.16066 80.0294 6.36201 78.0751 8.36317 77.5976L53.9279 66.7254C55.8906 66.2571 57.8834 67.4493 58.3609 69.4505L75.1557 139.837C75.5855 141.809 74.3842 143.763 72.4215 144.232Z" fill="#CED3DF"/>
<path d="M56.0591 77.3617L11.2256 88.0594L14.4578 101.606L59.2914 90.908L56.0591 77.3617Z" fill="white"/>
<path d="M15.6006 99.7467L12.7265 87.7013L11.2256 88.0594L14.4578 101.606L59.2914 90.908L58.9333 89.4071L15.6006 99.7467Z" fill="#E1E4ED"/>
<path d="M26.1683 80.7925L12.3526 84.0891C11.7369 84.236 11.1557 83.8459 11.018 83.2686C10.8711 82.6529 11.2612 82.0717 11.8384 81.934L25.6541 78.6375C26.2698 78.4905 26.851 78.8806 26.9887 79.4579C27.1356 80.0736 26.784 80.6456 26.1683 80.7925Z" fill="#909AB5"/>
<path d="M59.9524 93.6788L15.1189 104.376L26.2022 150.826L71.0358 140.129L59.9524 93.6788Z" fill="#E5E8ED"/>
<path d="M24.5618 106.882L21.4486 107.625C20.3742 107.882 19.711 108.96 19.9674 110.035L20.7102 113.148C20.9666 114.222 22.0454 114.886 23.1198 114.629L26.233 113.886C27.3075 113.63 27.9706 112.551 27.7142 111.477L26.9714 108.364C26.715 107.289 25.6362 106.626 24.5618 106.882Z" fill="#CED3DF"/>
<path d="M34.9523 104.403L31.8391 105.146C30.7647 105.402 30.1015 106.481 30.3579 107.556L31.1007 110.669C31.3571 111.743 32.4359 112.406 33.5103 112.15L36.6235 111.407C37.698 111.151 38.3611 110.072 38.1047 108.998L37.3619 105.884C37.1055 104.81 36.0267 104.147 34.9523 104.403Z" fill="#CED3DF"/>
<path d="M45.3813 101.915L42.268 102.658C41.1936 102.914 40.5305 103.993 40.7868 105.067L41.5297 108.18C41.786 109.255 42.8648 109.918 43.9392 109.662L47.0525 108.919C48.1269 108.662 48.7901 107.584 48.5337 106.509L47.7909 103.396C47.5345 102.321 46.4557 101.658 45.3813 101.915Z" fill="#CED3DF"/>
<path d="M55.7719 99.4353L52.6586 100.178C51.5842 100.435 50.9211 101.513 51.1774 102.588L51.9203 105.701C52.1767 106.775 53.2555 107.439 54.3299 107.182L57.4431 106.439C58.5175 106.183 59.1807 105.104 58.9243 104.03L58.1815 100.917C57.9251 99.8421 56.8463 99.1789 55.7719 99.4353Z" fill="#CED3DF"/>
<path d="M27.0226 117.196L23.9094 117.939C22.835 118.195 22.1718 119.274 22.4282 120.348L23.171 123.462C23.4274 124.536 24.5062 125.199 25.5806 124.943L28.6939 124.2C29.7683 123.944 30.4314 122.865 30.1751 121.791L29.4322 118.677C29.1758 117.603 28.097 116.94 27.0226 117.196Z" fill="#CED3DF"/>
<path d="M37.4133 114.717L34.3 115.46C33.2256 115.716 32.5624 116.795 32.8188 117.869L33.5616 120.982C33.818 122.057 34.8968 122.72 35.9712 122.464L39.0845 121.721C40.1589 121.464 40.822 120.386 40.5657 119.311L39.8228 116.198C39.5665 115.124 38.4877 114.46 37.4133 114.717Z" fill="#CED3DF"/>
<path d="M47.8422 112.228L44.729 112.971C43.6545 113.228 42.9914 114.306 43.2478 115.381L43.9906 118.494C44.247 119.568 45.3258 120.232 46.4002 119.975L49.5134 119.232C50.5878 118.976 51.251 117.897 50.9946 116.823L50.2518 113.71C49.9954 112.635 48.9166 111.972 47.8422 112.228Z" fill="#CED3DF"/>
<path d="M58.2327 109.749L55.1195 110.492C54.0451 110.748 53.3819 111.827 53.6383 112.901L54.3811 116.015C54.6375 117.089 55.7163 117.752 56.7907 117.496L59.9039 116.753C60.9783 116.497 61.6415 115.418 61.3851 114.343L60.6423 111.23C60.3859 110.156 59.3071 109.493 58.2327 109.749Z" fill="#CED3DF"/>
<path d="M29.4743 127.471L26.361 128.214C25.2866 128.47 24.6235 129.549 24.8798 130.624L25.6227 133.737C25.879 134.811 26.9579 135.474 28.0323 135.218L31.1455 134.475C32.2199 134.219 32.8831 133.14 32.6267 132.066L31.8839 128.952C31.6275 127.878 30.5487 127.215 29.4743 127.471Z" fill="#CED3DF"/>
<path d="M39.8649 124.992L36.7517 125.735C35.6773 125.991 35.0141 127.07 35.2705 128.144L36.0133 131.258C36.2697 132.332 37.3485 132.995 38.4229 132.739L41.5361 131.996C42.6106 131.74 43.2737 130.661 43.0173 129.586L42.2745 126.473C42.0181 125.399 40.9393 124.736 39.8649 124.992Z" fill="#CED3DF"/>
<path d="M50.2939 122.503L47.1806 123.246C46.1062 123.503 45.4431 124.581 45.6994 125.656L46.4423 128.769C46.6986 129.844 47.7774 130.507 48.8518 130.25L51.9651 129.507C53.0395 129.251 53.7027 128.172 53.4463 127.098L52.7035 123.985C52.4471 122.91 51.3683 122.247 50.2939 122.503Z" fill="#CED3DF"/>
<path d="M60.6845 120.024L57.5712 120.767C56.4968 121.023 55.8337 122.102 56.09 123.177L59.2938 136.603C59.5502 137.678 60.629 138.341 61.7034 138.085L64.8166 137.342C65.8911 137.085 66.5542 136.007 66.2978 134.932L63.0941 121.505C62.8377 120.431 61.7589 119.768 60.6845 120.024Z" fill="#909AB5"/>
<path d="M31.9351 137.785L28.8219 138.528C27.7474 138.784 27.0843 139.863 27.3407 140.937L28.0835 144.051C28.3399 145.125 29.4187 145.788 30.4931 145.532L33.6063 144.789C34.6807 144.533 35.3439 143.454 35.0875 142.379L34.3447 139.266C34.0883 138.192 33.0095 137.528 31.9351 137.785Z" fill="#CED3DF"/>
<path d="M42.3257 135.306L39.2125 136.048C38.1381 136.305 37.4749 137.384 37.7313 138.458L38.4741 141.571C38.7305 142.646 39.8093 143.309 40.8837 143.052L43.997 142.31C45.0714 142.053 45.7345 140.974 45.4782 139.9L44.7353 136.787C44.4789 135.712 43.4001 135.049 42.3257 135.306Z" fill="#CED3DF"/>
<path d="M52.7549 132.817L49.6417 133.56C48.5673 133.816 47.9041 134.895 48.1605 135.969L48.9033 139.083C49.1597 140.157 50.2385 140.82 51.3129 140.564L54.4262 139.821C55.5006 139.565 56.1637 138.486 55.9074 137.412L55.1645 134.298C54.9081 133.224 53.8293 132.561 52.7549 132.817Z" fill="#CED3DF"/>
<path d="M16.1515 91.9943C15.9822 91.285 15.9667 90.7296 16.1048 90.3281C16.2452 89.923 16.6276 89.6459 17.2521 89.4969C17.8796 89.3472 18.3486 89.4195 18.6592 89.7138C18.9697 90.0082 19.21 90.5116 19.38 91.224L20.2924 95.0481C20.4682 95.7847 20.4914 96.372 20.3619 96.8098C20.2348 97.2438 19.8514 97.5371 19.2118 97.6897C18.5752 97.8416 18.1026 97.7542 17.7939 97.4273C17.4845 97.0974 17.2412 96.5612 17.064 95.8185L16.1515 91.9943ZM18.4313 91.3975C18.2461 90.6214 17.9815 90.244 17.6373 90.2653C17.5836 90.2685 17.5082 90.2816 17.4112 90.3048C17.3142 90.3279 17.2246 90.3685 17.1423 90.4266C17.0631 90.484 17.0069 90.6111 16.9738 90.808C16.9437 91.0043 16.9775 91.307 17.0752 91.7162L18.0061 95.6177C18.009 95.6298 18.0119 95.6419 18.0148 95.6541C18.1869 96.3755 18.3791 96.7847 18.5912 96.8814C18.6995 96.9325 18.8173 96.9428 18.9446 96.9124C19.075 96.8813 19.166 96.8532 19.2177 96.8281C19.2738 96.8083 19.3287 96.7631 19.3824 96.6926C19.5433 96.4941 19.5387 96.0386 19.3687 95.3262C19.3659 95.3141 19.3633 95.3034 19.3611 95.2944L18.4313 91.3975Z" fill="#CED3DF"/>
<path d="M20.3167 91.0005C20.1474 90.2911 20.1318 89.7357 20.27 89.3343C20.4104 88.9291 20.7928 88.652 21.4173 88.503C22.0448 88.3533 22.5138 88.4256 22.8244 88.72C23.1349 89.0144 23.3752 89.5177 23.5451 90.2301L24.4576 94.0543C24.6334 94.7909 24.6566 95.3781 24.5271 95.8159C24.4 96.25 24.0166 96.5433 23.377 96.6959C22.7404 96.8478 22.2677 96.7603 21.9591 96.4335C21.6497 96.1036 21.4064 95.5673 21.2291 94.8246L20.3167 91.0005ZM22.5965 90.4036C22.4113 89.6276 22.1467 89.2502 21.8025 89.2714C21.7488 89.2746 21.6734 89.2878 21.5764 89.3109C21.4794 89.3341 21.3898 89.3747 21.3075 89.4328C21.2283 89.4901 21.1721 89.6173 21.139 89.8142C21.1089 90.0104 21.1427 90.3131 21.2404 90.7224L22.1713 94.6238C22.1742 94.636 22.1771 94.6481 22.18 94.6602C22.3521 95.3817 22.5443 95.7908 22.7564 95.8876C22.8647 95.9386 22.9825 95.949 23.1098 95.9186C23.2402 95.8875 23.3312 95.8594 23.3829 95.8342C23.439 95.8144 23.4939 95.7693 23.5476 95.6988C23.7085 95.5002 23.7039 95.0447 23.5339 94.3323C23.531 94.3202 23.5285 94.3096 23.5263 94.3005L22.5965 90.4036Z" fill="#CED3DF"/>
<path d="M24.4819 90.0066C24.3126 89.2973 24.297 88.7419 24.4351 88.3405C24.5756 87.9353 24.958 87.6582 25.5825 87.5092C26.21 87.3595 26.679 87.4318 26.9895 87.7261C27.3001 88.0205 27.5403 88.5239 27.7103 89.2363L28.6228 93.0604C28.7986 93.7971 28.8217 94.3843 28.6923 94.8221C28.5652 95.2561 28.1818 95.5494 27.5422 95.7021C26.9056 95.854 26.4329 95.7665 26.1243 95.4396C25.8149 95.1097 25.5715 94.5735 25.3943 93.8308L24.4819 90.0066ZM26.7617 89.4098C26.5765 88.6337 26.3118 88.2563 25.9677 88.2776C25.914 88.2808 25.8386 88.2939 25.7416 88.3171C25.6446 88.3402 25.555 88.3808 25.4727 88.4389C25.3935 88.4963 25.3373 88.6234 25.3042 88.8204C25.2741 89.0166 25.3079 89.3193 25.4055 89.7285L26.3365 93.63C26.3394 93.6421 26.3423 93.6542 26.3451 93.6664C26.5173 94.3878 26.7094 94.797 26.9216 94.8937C27.0299 94.9448 27.1477 94.9551 27.275 94.9248C27.4053 94.8936 27.4964 94.8655 27.548 94.8404C27.6042 94.8206 27.6591 94.7754 27.7128 94.705C27.8736 94.5064 27.8691 94.0509 27.6991 93.3385C27.6962 93.3264 27.6937 93.3158 27.6915 93.3067L26.7617 89.4098Z" fill="#CED3DF"/>
</svg>
