<svg width="143" height="110" viewBox="0 0 143 110" fill="none" xmlns="http://www.w3.org/2000/svg">
<path d="M93.9258 54.9249C99.8936 49.1121 103.6 40.9888 103.6 31.9999C103.6 14.3269 89.273 0 71.5999 0C53.9268 0 39.6 14.3269 39.6 31.9999C39.6 40.9877 43.3053 49.11 49.2717 54.9226C55.0374 60.5397 88.1603 60.5406 93.9258 54.9249Z" fill="#0096EB"/>
<path fill-rule="evenodd" clip-rule="evenodd" d="M93.9277 54.9228C88.1621 60.5397 80.285 63.9998 71.5999 63.9998C62.9146 63.9998 55.0375 60.5397 49.2719 54.9227C53.7403 47.2339 62.0663 42.0645 71.5997 42.0645C81.1332 42.0645 89.4593 47.234 93.9277 54.9228Z" fill="white"/>
<path d="M71.5998 38.1932C77.4433 38.1932 82.1804 33.4561 82.1804 27.6126C82.1804 21.7691 77.4433 17.032 71.5998 17.032C65.7563 17.032 61.0192 21.7691 61.0192 27.6126C61.0192 33.4561 65.7563 38.1932 71.5998 38.1932Z" fill="white"/>
<path fill-rule="evenodd" clip-rule="evenodd" d="M41.9072 82.3496C39.9718 82.3496 38.3995 83.9227 38.3995 85.8581C38.3995 87.7997 39.9718 89.3681 41.9072 89.3681C43.848 89.3681 45.4173 87.7997 45.4173 85.8581C45.4173 83.9227 43.848 82.3496 41.9072 82.3496Z" fill="white"/>
<path fill-rule="evenodd" clip-rule="evenodd" d="M30.3058 92.9405V90.9742H24.5112V109.386H30.7432V99.5464C30.7432 96.5953 34.4026 95.9419 36.9031 96.5953V90.9742C34.9778 90.728 32.3852 91.1592 30.3058 92.9405Z" fill="white"/>
<path fill-rule="evenodd" clip-rule="evenodd" d="M38.7953 109.386H45.0272V90.9751H38.7953V109.386Z" fill="white"/>
<path fill-rule="evenodd" clip-rule="evenodd" d="M56.0324 105.352C54.8417 105.352 53.425 104.754 53.425 101.922V95.8362H57.9182V90.9738H53.425V85.8582L47.1915 87.5791V102.333C47.1915 106.9 49.9553 109.968 54.0707 109.968C55.4347 109.968 56.8878 109.615 58.3959 108.957V105.035V104.746C58.08 104.919 57.0496 105.352 56.0324 105.352Z" fill="white"/>
<path fill-rule="evenodd" clip-rule="evenodd" d="M97.3708 82.3496C95.4362 82.3496 93.8646 83.9227 93.8646 85.8581C93.8646 87.7997 95.4362 89.3681 97.3708 89.3681C99.3139 89.3681 100.883 87.7997 100.883 85.8581C100.883 83.9227 99.3139 82.3496 97.3708 82.3496Z" fill="white"/>
<path fill-rule="evenodd" clip-rule="evenodd" d="M112.381 90.334C106.95 90.334 102.549 94.7351 102.549 100.169C102.549 105.599 106.95 110 112.381 110C117.814 110 122.215 105.599 122.215 100.169C122.215 94.7351 117.814 90.334 112.381 90.334ZM112.381 104.784C110.249 104.784 108.536 102.717 108.536 100.164C108.536 97.6165 110.249 95.5495 112.381 95.5495C114.505 95.5495 116.224 97.6165 116.224 100.164C116.224 102.717 114.505 104.784 112.381 104.784Z" fill="white"/>
<path fill-rule="evenodd" clip-rule="evenodd" d="M134.914 90.4485C132.325 90.4485 130.564 91.8559 129.92 92.764V90.9741H124.12V109.386H130.358V98.9735C130.358 96.562 132.069 95.1569 133.62 95.1569C134.93 95.1569 136.511 96.5434 136.511 98.845V109.386H142.743V98.6932C142.743 94.2775 139.737 90.4485 134.914 90.4485Z" fill="white"/>
<path fill-rule="evenodd" clip-rule="evenodd" d="M94.2581 109.386H100.488V90.9751H94.2581V109.386Z" fill="white"/>
<path fill-rule="evenodd" clip-rule="evenodd" d="M85.7084 92.9405V90.9742H79.9108V109.386H86.1435V99.5464C86.1435 96.5953 89.8068 95.9419 92.3042 96.5953V90.9742C90.3789 90.728 87.7878 91.1592 85.7084 92.9405Z" fill="white"/>
<path fill-rule="evenodd" clip-rule="evenodd" d="M14.9969 104.515C10.4124 104.515 6.95579 100.598 6.95579 95.9752C6.95579 91.6245 10.2947 87.4433 15.4297 87.4433C19.0496 87.4433 21.6508 89.1743 22.4404 89.7007V84.0873C20.9355 83.2233 18.1137 81.9607 14.3118 81.9607C6.39685 81.9607 0.0541909 88.2631 0 95.9752C0.0541909 103.688 6.39685 109.991 14.3118 109.991C17.345 109.991 20.2705 109.182 22.4404 107.469V101.846C20.5445 103.807 17.6384 104.515 14.9969 104.515Z" fill="white"/>
<path fill-rule="evenodd" clip-rule="evenodd" d="M77.5149 102.224C77.5149 102.213 77.8579 100.943 77.8571 99.5852C77.8524 92.8144 72.3381 90.2922 68.8676 90.2922C65.0982 90.2922 62.0906 91.8901 60.4007 94.7978C58.6967 97.7172 58.6836 101.522 60.3689 104.493C62.8307 109.018 69.4358 112.107 76.7485 108.226V104.795V103.852V103.733C71.9828 106.826 66.2572 106.175 65.5202 102.23L65.5209 102.224H77.5149ZM68.8204 94.9333C71.1274 94.9333 72.325 96.8757 72.325 98.6036H65.3135C65.3135 96.5699 66.9825 94.9333 68.8204 94.9333Z" fill="white"/>
</svg>
