<?xml version="1.0" encoding="UTF-8"?>
<svg width="21px" height="19px" viewBox="0 0 21 19" version="1.1" xmlns="http://www.w3.org/2000/svg" xmlns:xlink="http://www.w3.org/1999/xlink">
    <!-- Generator: Sketch 49 (51002) - http://www.bohemiancoding.com/sketch -->
    <title>PAY</title>
    <desc>Created with Sketch.</desc>
    <defs></defs>
    <g id="ESS-Home---Dashboard-widgets" stroke="none" stroke-width="1" fill="none" fill-rule="evenodd">
        <g id="ESS-Dashboard---1440px-Copy" transform="translate(-1111.000000, -561.000000)" fill="#13B078" fill-rule="nonzero">
            <g id="Group-33" transform="translate(1096.000000, 546.000000)">
                <g id="PAY" transform="translate(15.000000, 15.000000)">
                    <path d="M0.579449313,5.40284842 C0.651655194,4.86582151 2.85394614,1.80965269 4.78102292,0.30777035 C5.22869939,-0.173294116 7.37951043,1.75369024 7.37951043,1.75369024 C7.37951043,1.75369024 10.9050059,1.16790992 11.7596925,1.16790992 C12.6135242,1.16790992 13.4989416,2.21488365 14.2967184,2.78892619 C15.0945876,3.36206759 15.9971727,3.54257075 16.0820175,4.02093182 C16.16686,4.4992929 15.0630018,5.05256325 14.4041376,5.05256325 C13.7443492,5.05256325 12.5908573,4.90273547 11.9907282,4.44242933 C11.3914079,3.98121281 10.8516776,3.87199131 10.7253115,3.77272844 C9.82815629,4.38739112 4.85503106,7.3522917 4.33514872,7.52743429 C4.33514872,7.52743429 2.06065189,7.55812121 0.57951863,5.40277911 L0.579449313,5.40284842 Z M0,10.452639 C0,10.452639 10.9274648,4.27273973 11.0094907,4.19787667 C12.9112204,5.62304748 14.545846,5.49487915 14.9726116,5.3991977 C15.4004402,5.30352548 16.5160152,4.35582848 16.3201467,3.78178594 C16.1251908,3.20774341 14.3263632,2.38729974 14.3263632,2.38729974 L16.2416329,1.23921467 L20.7951091,9.28029272 L4.60735911,18.5217213 L0,10.452639 Z M11.1513608,12.6765801 L11.5539115,13.3453799 L12.2371525,12.934719 L11.8355029,12.2659193 C12.3129629,11.9048899 12.6099197,11.5240125 12.7263502,11.1232641 C12.8436842,10.7234168 12.7498165,10.2703336 12.4465611,9.76489239 C12.2525086,9.44268086 12.0422081,9.21883107 11.8147538,9.092465 C11.5873065,8.96610587 11.3535373,8.89480111 11.1134441,8.8767508 C10.874252,8.85869933 10.6368853,8.87494554 10.4040242,8.92368347 C10.170262,8.97332414 9.94821446,9.0121351 9.73612556,9.04192089 C9.52492394,9.07080324 9.33357489,9.0698998 9.16298416,9.03740808 C8.99149461,9.00581772 8.85431268,8.90292491 8.74959682,8.72963773 C8.68100008,8.61591289 8.65302116,8.48954451 8.6638532,8.35146375 C8.6755866,8.21336914 8.75501284,8.09965585 8.90394642,8.0102823 C9.03752615,7.92995239 9.1701955,7.92543981 9.30199145,7.9985489 C9.43286548,8.07165822 9.54298581,8.18177161 9.63233625,8.33069596 L9.70002956,8.44171279 L10.9925264,7.66549378 C10.6856572,7.15464583 10.346278,6.8414456 9.97260965,6.72591619 C9.59984245,6.60948334 9.15036372,6.67537207 8.6250746,6.92358008 L8.36603455,6.49214705 L7.68279362,6.90280789 L7.94183366,7.33424092 C7.12409339,8.02741739 6.9941228,8.83702439 7.55102077,9.76313126 C7.73243892,10.0654948 7.93279926,10.2794091 8.1521434,10.4030487 C8.37237019,10.5276032 8.59711648,10.5998091 8.8281753,10.6187629 C9.05923413,10.6386196 9.29029295,10.6277887 9.5222529,10.5862714 C9.75331172,10.5456559 9.97083049,10.5122609 10.1748092,10.4869877 C10.3796937,10.4626179 10.564721,10.467131 10.730783,10.5023314 C10.8968449,10.5375318 11.0304431,10.6395226 11.1315314,10.8082995 C11.2118613,10.9418792 11.2416448,11.0790773 11.2217876,11.2189603 C11.2010283,11.3588595 11.1197959,11.4725936 10.9753864,11.5583395 C10.8372918,11.6422786 10.700103,11.6666484 10.5656267,11.6332534 C10.4302401,11.5998585 10.2966512,11.4716925 10.1621749,11.2487484 L10.0773324,11.1070447 L8.73970981,11.9112449 L8.86065524,12.1116168 C9.14317086,12.5818677 9.47078917,12.8526225 9.84265523,12.922125 C10.2154224,12.9916228 10.6513611,12.909489 11.1513955,12.676625 L11.1513608,12.6765801 Z" id="Shape"></path>
                </g>
            </g>
        </g>
    </g>
</svg>