<?xml version="1.0" encoding="UTF-8"?>
<svg width="21px" height="16px" viewBox="0 0 21 16" version="1.1" xmlns="http://www.w3.org/2000/svg" xmlns:xlink="http://www.w3.org/1999/xlink">
    <!-- Generator: Sketch 49 (51002) - http://www.bohemiancoding.com/sketch -->
    <title>ATTENDANCE</title>
    <desc>Created with Sketch.</desc>
    <defs></defs>
    <g id="ESS-Home---Dashboard-widgets" stroke="none" stroke-width="1" fill="none" fill-rule="evenodd">
        <g id="ESS-Dashboard---1440px-Copy" transform="translate(-1112.000000, -98.000000)" fill="#13B078" fill-rule="nonzero">
            <g id="Group-33-Copy-4" transform="translate(1096.000000, 85.000000)">
                <g id="ATTENDANCE" transform="translate(15.950156, 13.000000)">
                    <polygon id="Shape" points="10.2066502 0.268168918 10.9578407 0.268168918 10.9578407 1.68359001 10.2066502 1.68359001"></polygon>
                    <polygon id="Shape" points="13.7972908 0.268168918 14.5484814 0.268168918 14.5484814 1.68359001 13.7972908 1.68359001"></polygon>
                    <polygon id="Shape" points="6.62306656 0.268168918 7.3742571 0.268168918 7.3742571 1.68359001 6.62306656 1.68359001"></polygon>
                    <polygon id="Shape" points="3.0324259 0.268168918 3.78361643 0.268168918 3.78361643 1.68359001 3.0324259 1.68359001"></polygon>
                    <polygon id="Shape" points="17.3671131 0.243267518 18.1183037 0.243267518 18.1183037 1.7459712 17.3671131 1.7459712"></polygon>
                    <path d="M18.1733841,1.72713553 L20.9231741,1.72713553 L20.9231741,15.7191681 L0.248056249,15.7191681 L0.248056249,1.72713553 L3.01852345,1.72713553 L3.01852345,3.06772472 L3.8317457,3.06772472 L3.8317457,1.72713553 L6.6022129,1.72713553 L6.6022129,3.06772472 L7.41543515,3.06772472 L7.41543515,1.72713553 L10.1859024,1.72713553 L10.1859024,3.06772472 L10.9991246,3.06772472 L10.9991246,1.72713553 L13.7695918,1.72713553 L13.7695918,3.06772472 L14.582814,3.06772472 L14.582814,1.72713553 L17.3601619,1.72713553 L17.3601619,3.06772472 L18.1733841,3.06772472 L18.1733841,1.72713553 Z M6.06898086,7.99994781 L6.06907342,7.99900541 L7.94555667,11.9721894 C8.15436848,12.3910856 8.77895274,12.4600018 9.05734535,12.111823 L15.7280311,5.4901592 C16.0064237,5.14197579 15.6593296,4.86270857 15.380937,5.07215898 L8.91804492,9.88236471 L7.25037348,7.44232791 C6.83367544,6.67524366 5.65228283,7.23286357 6.06898086,7.99994781 Z" id="Combined-Shape"></path>
                </g>
            </g>
        </g>
    </g>
</svg>