<?xml version="1.0" encoding="UTF-8"?>
<svg width="16px" height="16px" viewBox="0 0 16 16" version="1.1" xmlns="http://www.w3.org/2000/svg" xmlns:xlink="http://www.w3.org/1999/xlink">
    <!-- Generator: Sketch 49 (51002) - http://www.bohemiancoding.com/sketch -->
    <title>TIME OFFS</title>
    <desc>Created with Sketch.</desc>
    <defs></defs>
    <g id="ESS-Home---Dashboard-widgets" stroke="none" stroke-width="1" fill="none" fill-rule="evenodd">
        <g id="ESS-Dashboard---1440px-Copy" transform="translate(-104.000000, -675.000000)" fill="#13B078" fill-rule="nonzero">
            <g id="timeoffs-widget" transform="translate(90.000000, 658.000000)">
                <g id="Group-6-Copy-3">
                    <g id="Group-46" transform="translate(13.913043, 15.000000)">
                        <path d="M7.87248418,2 C5.80745082,2 3.82712401,2.82051676 2.36733757,4.28038105 C0.907551137,5.74024534 0.0869565217,7.72065001 0.0869565217,9.78552766 C0.0869565217,11.8504053 0.907473282,13.8308878 2.36733757,15.2906743 C3.82720186,16.7504607 5.80760653,17.5710553 7.87248418,17.5710553 C9.93736183,17.5710553 11.9178444,16.7505386 13.3776308,15.2906743 C14.8374172,13.83081 15.6580118,11.8504053 15.6580118,9.78552766 C15.6580118,7.72065001 14.8374951,5.74016749 13.3776308,4.28038105 C11.9177665,2.82059462 9.93736183,2 7.87248418,2 Z M10.9331308,13.5372177 L7.52696246,10.1310494 C7.43572542,10.0392051 7.38524095,9.91512555 7.38584977,9.7855588 L7.38584433,4.91960401 L8.35904073,4.91960401 L8.35904073,9.58609358 L11.6241353,12.8463611 L10.9331308,13.5372177 Z" id="TIME-OFFS"></path>
                    </g>
                </g>
            </g>
        </g>
    </g>
</svg>