<?xml version="1.0" encoding="UTF-8"?>
<svg width="21px" height="16px" viewBox="0 0 21 16" version="1.1" xmlns="http://www.w3.org/2000/svg" xmlns:xlink="http://www.w3.org/1999/xlink">
    <!-- Generator: Sketch 49 (51002) - http://www.bohemiancoding.com/sketch -->
    <title>EVENTS</title>
    <desc>Created with Sketch.</desc>
    <defs></defs>
    <g id="ESS-Home---Dashboard-widgets" stroke="none" stroke-width="1" fill="none" fill-rule="evenodd">
        <g id="ESS-Dashboard---1440px-Copy" transform="translate(-1112.000000, -704.000000)" fill="#13B078" fill-rule="nonzero">
            <g id="Group-33-Copy-2" transform="translate(1096.000000, 688.000000)">
                <g id="EVENTS" transform="translate(15.950156, 16.000000)">
                    <polygon id="Shape" points="10.2066502 0.268168918 10.9578407 0.268168918 10.9578407 1.68359001 10.2066502 1.68359001"></polygon>
                    <polygon id="Shape" points="13.7972908 0.268168918 14.5484814 0.268168918 14.5484814 1.68359001 13.7972908 1.68359001"></polygon>
                    <polygon id="Shape" points="6.62306656 0.268168918 7.3742571 0.268168918 7.3742571 1.68359001 6.62306656 1.68359001"></polygon>
                    <polygon id="Shape" points="3.0324259 0.268168918 3.78361643 0.268168918 3.78361643 1.68359001 3.0324259 1.68359001"></polygon>
                    <polygon id="Shape" points="17.3671131 0.243267518 18.1183037 0.243267518 18.1183037 1.7459712 17.3671131 1.7459712"></polygon>
                    <path d="M18.1733841,1.72713553 L18.1733841,3.06772472 L17.3601619,3.06772472 L17.3601619,1.72713553 L14.582814,1.72713553 L14.582814,3.06772472 L13.7695918,3.06772472 L13.7695918,1.72713553 L10.9991246,1.72713553 L10.9991246,3.06772472 L10.1859024,3.06772472 L10.1859024,1.72713553 L7.41543515,1.72713553 L7.41543515,3.06772472 L6.6022129,3.06772472 L6.6022129,1.72713553 L3.8317457,1.72713553 L3.8317457,3.06772472 L3.01852345,3.06772472 L3.01852345,1.72713553 L0.248056249,1.72713553 L0.248056249,15.7191681 L20.9231741,15.7191681 L20.9231741,1.72713553 L18.1733841,1.72713553 Z M15.7681912,8.33047588 C15.5821173,11.4980297 11.1161662,13.6491594 10.6133495,13.886042 C10.2687665,13.630394 6.00296123,11.5976672 5.46521198,8.64206263 C5.42386103,8.38641464 5.1344115,6.87122195 6.21640251,5.83615377 C7.05718264,5.02554937 8.2218826,4.98816535 8.40106177,4.98816535 C9.20048743,4.97569485 9.98615179,5.43709289 10.6201949,5.95462697 C11.247322,5.44331823 12.0467829,4.9632001 12.8393279,4.98816535 C13.0460791,5.00063584 14.2038843,5.03804796 15.0239872,5.83615377 C15.8578867,6.67791685 15.795855,7.78159157 15.7682971,8.33028434 L15.7681912,8.33047588 Z" id="Shape"></path>
                </g>
            </g>
        </g>
    </g>
</svg>