<?xml version="1.0" encoding="UTF-8"?>
<svg width="18px" height="19px" viewBox="0 0 18 19" version="1.1" xmlns="http://www.w3.org/2000/svg" xmlns:xlink="http://www.w3.org/1999/xlink">
    <!-- Generator: Sketch 49 (51002) - http://www.bohemiancoding.com/sketch -->
    <title>LINKS</title>
    <desc>Created with Sketch.</desc>
    <defs></defs>
    <g id="ESS-Home---Dashboard-widgets" stroke="none" stroke-width="1" fill="none" fill-rule="evenodd">
        <g id="ESS-Dashboard---1440px-Copy" transform="translate(-104.000000, -862.000000)" fill="#13B078" fill-rule="nonzero">
            <g id="Group-6-Copy-2" transform="translate(90.000000, 847.000000)">
                <g id="LINKS" transform="translate(14.000000, 15.000000)">
                    <path d="M7.83330612,13.3967755 C7.80532531,13.4283453 7.77734265,13.4584788 7.74864367,13.4864596 C7.73357676,13.5029616 7.71994469,13.5216165 7.70344347,13.5395522 L6.26706184,15.1101073 C5.5632251,15.8799563 4.44109041,15.9667788 3.55218429,15.1531567 L3.5378348,15.1402423 C2.64960827,14.3273402 2.63741235,13.2030382 3.34124908,12.4317933 L4.77834704,10.8612382 C4.79771908,10.8411498 4.81709112,10.8203415 4.83717949,10.7995349 C4.86013867,10.7729886 4.88309786,10.7457241 4.90820969,10.719896 L7.45520969,7.93467147 C5.78420357,7.29181433 3.93529133,7.57162249 2.79669949,8.81501841 L1.12857704,10.6395572 C-0.420451531,12.3320715 -0.0746311224,15.1632511 1.8797648,16.9511286 L1.89483171,16.9647607 C3.84856641,18.7519954 6.70046437,18.8459443 8.24883171,17.1541648 L9.91695416,15.329626 C11.0527174,14.0898301 11.1682297,12.2264627 10.3775705,10.6165648 L7.83330612,13.3967755 Z" id="Shape"></path>
                    <path d="M16.1101837,1.39692857 C14.1571837,-0.389589796 11.2981224,-0.474887755 9.7504898,1.21612408 L8.08236735,3.03994653 C6.9444551,4.28404041 6.82965918,6.15027306 7.61888571,7.75741592 L10.2749878,4.85317102 C10.281445,4.8467138 10.2879024,4.84169143 10.2929246,4.83451714 C10.2929246,4.83451714 10.2943596,4.83236486 10.295077,4.83236486 L11.7314587,3.26109343 C12.4367281,2.49124445 13.5760913,2.38434649 14.4786628,3.21015343 C15.3676056,4.0237718 15.361875,5.16884731 14.6580309,5.93935751 L13.2575207,7.46972486 C13.2381487,7.48981506 13.2187766,7.51062159 13.2008409,7.53070996 L10.5440042,10.4349549 C12.2150103,11.077812 14.0646572,10.7987202 15.2017797,9.55532424 L16.8706185,7.73221812 C18.4189307,6.03896914 18.0795572,3.1991569 16.1101001,1.39695282 L16.1101837,1.39692857 Z" id="Shape"></path>
                    <path d="M5.37740816,13.0659796 L5.45346,13.1355753 C6.03245388,13.6650692 6.9149498,13.6205835 7.44448041,13.0415859 L12.8119702,7.17615735 C13.3400314,6.5978798 13.3055927,5.71538388 12.7251551,5.18660633 L12.6491033,5.11701061 C12.071542,4.58894939 11.1911951,4.63128612 10.6610216,5.20956551 L5.29573592,11.0757288 C4.76695837,11.6547227 4.79996449,12.5379349 5.37752755,13.0660145 L5.37740816,13.0659796 Z" id="Shape"></path>
                </g>
            </g>
        </g>
    </g>
</svg>