<svg width="24" height="24" viewBox="0 0 24 24" fill="none" xmlns="http://www.w3.org/2000/svg">
<g clip-path="url(#clip0)">
<path d="M20.9011 22.4395C22.0002 22.3297 22.8023 21.3497 22.6924 20.2505L21.3457 6.77189C21.2359 5.67287 20.256 4.87092 19.1569 4.98063L18.7348 5.02277V4.8797C18.7348 3.77513 17.8394 2.8797 16.7348 2.8797H8.60083V2.23718C8.60083 1.0036 7.59723 1.90735e-06 6.36365 1.90735e-06C5.13007 1.90735e-06 4.12665 1.0036 4.12665 2.23718V2.8797H3.07812C1.97356 2.8797 1.07812 3.77513 1.07812 4.8797V18.4254C1.07812 19.53 1.97356 20.4254 3.07812 20.4254H4.91766L5.07585 22.0098C5.18558 23.109 6.16557 23.911 7.26469 23.8013L20.9011 22.4395ZM2.48566 5.28723C2.48566 4.73495 2.93337 4.28723 3.48566 4.28723H4.12665V7.17426C4.12665 8.40985 5.1319 9.4151 6.36749 9.4151C7.60309 9.4151 8.60834 8.40985 8.60834 7.17426V5.97437H7.20081V7.17426C7.20081 7.63367 6.8269 8.00757 6.36749 8.00757C5.9079 8.00757 5.53418 7.63367 5.53418 7.17426V4.28723H16.3271C16.8794 4.28723 17.3271 4.73495 17.3271 5.28723V14.6876H13.9968C13.4445 14.6876 12.9968 15.1353 12.9968 15.6876V19.0179H3.48566C2.93337 19.0179 2.48566 18.5702 2.48566 18.0179V5.28723ZM14.4045 18.7438V16.0952H17.0634L14.4045 18.7438ZM13.8846 20.4254C14.4136 20.4254 14.9212 20.2158 15.296 19.8424L18.1462 17.0035C18.523 16.6282 18.7348 16.1183 18.7348 15.5865V6.43726L18.8912 6.42164C19.4407 6.36676 19.9307 6.76774 19.9856 7.31728L21.2512 19.9849C21.3061 20.5345 20.9051 21.0245 20.3555 21.0794L7.53048 22.3602C6.98092 22.415 6.49092 22.014 6.43606 21.4644L6.33234 20.4254H13.8846ZM5.53418 2.23718C5.53418 1.7796 5.90625 1.40753 6.36365 1.40753C6.82104 1.40753 7.1933 1.7796 7.1933 2.23718V2.8797H5.53418V2.23718Z" fill="#0096EB"/>
<path d="M5.15197 14.2754C5.40655 14.5691 5.85102 14.6008 6.14474 14.3463L8.38463 12.405C8.45734 12.342 8.56639 12.3459 8.63442 12.4139L9.39481 13.1742C9.91332 13.6927 10.7378 13.741 11.3133 13.2866L14.5446 10.7358C14.8497 10.495 14.9018 10.0523 14.6609 9.74723C14.42 9.44214 13.9774 9.39008 13.6723 9.63095L10.5765 12.075C10.484 12.148 10.3515 12.1403 10.2682 12.0569L9.37732 11.1661C8.92938 10.7181 8.21144 10.6925 7.73273 11.1074L5.22287 13.2826C4.92912 13.5371 4.89738 13.9817 5.15197 14.2754Z" fill="#0096EB"/>
</g>
<defs>
<clipPath id="clip0">
<rect width="24" height="24" fill="white"/>
</clipPath>
</defs>
</svg>
