<?xml version="1.0" encoding="UTF-8"?>
<svg width="150px" height="130px" viewBox="0 0 150 130" version="1.1" xmlns="http://www.w3.org/2000/svg" xmlns:xlink="http://www.w3.org/1999/xlink">
    <!-- Generator: Sketch 47.1 (45422) - http://www.bohemiancoding.com/sketch -->
    <title>admin-pass</title>
    <desc>Created with Sketch.</desc>
    <defs></defs>
    <g id="Page-1" stroke="none" stroke-width="1" fill="none" fill-rule="evenodd">
        <g id="admin-pass">
            <path d="M127.0065,83.8207863 L98.67,83.8207863 L98.67,47.0382953 L83.067,47.0382953 L83.067,33.8752009 C83.067,15.1992519 67.938,0 49.335,0 C30.738,0 15.603,15.1932264 15.603,33.8752009 L15.603,47.0382953 L0,47.0382953 L0,114.794723 L46.881,114.794723 C50.09775,123.650509 58.54695,130 68.4615,130 L127.002,130 C139.6875,130 150,119.643721 150,106.910393 C150,94.1769148 139.6875,83.8207863 127.008,83.8207863 L127.0065,83.8207863 Z M20.6055,33.8816783 C20.6055,17.9714207 33.4962,5.03172063 49.3335,5.03172063 C65.1765,5.03172063 78.0615,17.9771449 78.0615,33.8816783 L78.0615,47.0447727 L20.604,47.0388889 L20.6055,33.8816783 Z M4.9965,109.777011 L4.9965,52.065045 L93.666,52.065045 L93.666,83.8283181 L68.4645,83.8224342 C64.8024,83.8224342 61.35705,84.7050754 58.28085,86.2409079 L57.34335,80.1212883 C58.9488,78.2324537 59.84535,75.8081052 59.84535,73.2778591 C59.84535,67.4641829 55.13445,62.7391587 49.3395,62.7391587 C43.5504,62.7391587 38.83365,67.4700577 38.83365,73.2778591 C38.83365,75.8081052 39.73599,78.2383285 41.33565,80.133038 L38.86305,96.1969451 L41.33565,99.0920335 L46.86105,99.0920335 C45.98214,101.539881 45.47823,104.164275 45.47823,106.906317 C45.47823,107.877216 45.560262,108.830401 45.677445,109.771881 L4.9965,109.777011 Z M49.3635,94.0776452 L44.24235,94.0776452 L46.45725,79.6906268 L45.660375,77.4252001 C44.494365,76.3836823 43.826325,74.8773295 43.826325,73.2826885 C43.826325,70.2405785 46.293075,67.7632059 49.328325,67.7632059 C52.363425,67.7632059 54.836175,70.2404279 54.836175,73.2826885 C54.836175,74.859705 54.17406,76.3601981 53.013975,77.395826 L52.205385,79.6553778 L53.68194,89.258473 C52.02954,90.6530383 50.57064,92.2712088 49.36359,94.0776452 L49.3635,94.0776452 Z" id="Shape" fill="#C7CAD3" fill-rule="nonzero"></path>
            <path d="M127.0065,124.982289 L68.466,124.982289 C58.54605,124.982289 50.472,116.873812 50.472,106.911899 C50.472,96.9498368 58.5462,88.8415104 68.466,88.8415104 L127.0065,88.8415104 C136.92645,88.8473943 145.0005,96.9499874 145.0005,106.911899 C145.0005,116.873962 136.9263,124.982289 127.0065,124.982289 Z" id="Path" fill="#F0F0F0"></path>
            <path d="M74,102 C71.239819,102 69,104.245708 69,107 C69,109.754137 71.2457076,112 74,112 C76.760181,112 79,109.754292 79,107 C79,104.245863 76.7542924,102 74,102 Z" id="Shape" fill="#C7CAD3" fill-rule="nonzero"></path>
            <path d="M89.3333272,102 C86.5731496,102 84.3333333,104.245708 84.3333333,107 C84.3333333,109.754137 86.5790381,112 89.3333272,112 C92.0874614,112 94.3333211,109.754292 94.3333211,107 C94.3393739,104.245863 92.0936598,102 89.3333272,102 Z" id="Shape" fill="#C7CAD3" fill-rule="nonzero"></path>
            <path d="M109.666667,106.997734 C109.666667,113.667422 99.6666667,113.667422 99.6666667,106.997734 C99.6666667,100.334089 109.666667,100.334089 109.666667,106.997734" id="Shape" fill="#C7CAD3" fill-rule="nonzero"></path>
            <path d="M119.999994,102 C117.239816,102 115,104.245708 115,107 C115,109.754137 117.245705,112 119.999994,112 C122.754283,112 124.999988,109.754292 124.999988,107 C125.006041,104.245863 122.760326,102 119.999994,102 Z" id="Shape" fill="#C7CAD3" fill-rule="nonzero"></path>
        </g>
    </g>
</svg>