<svg width="24" height="24" viewBox="0 0 24 24" fill="none" xmlns="http://www.w3.org/2000/svg">
    <path fill-rule="evenodd" clip-rule="evenodd"
          d="M12 7C12 9.21 10.21 11 8 11C5.79 11 4 9.21 4 7C4 4.79 5.79 3 8 3C10.21 3 12 4.79 12 7ZM0 17C0 14.34 5.33 13 8 13C8.48194 13 9.05055 13.0437 9.65883 13.1309C9.55464 13.6544 9.5 14.1958 9.5 14.75C9.5 16.3046 9.92998 17.7587 10.6775 19H0V17Z"
          fill="white"/>
    <path d="M24 14.5C24 10.912 21.088 8 17.5 8C13.912 8 11 10.912 11 14.5C11 18.088 13.912 21 17.5 21C21.088 21 24 18.088 24 14.5ZM19.45 10.925L21.725 13.2L19.45 15.475V13.85H16.85V12.55H19.45V10.925ZM15.55 18.075L13.275 15.8L15.55 13.525V15.15H18.15V16.45H15.55V18.075Z"
          fill="white"/>
</svg>
