<svg width="24" height="24" viewBox="0 0 24 24" fill="none" xmlns="http://www.w3.org/2000/svg">
    <path fill-rule="evenodd" clip-rule="evenodd"
          d="M12 22C17.5228 22 22 17.5228 22 12C22 6.47715 17.5228 2 12 2C6.47715 2 2 6.47715 2 12C2 17.5228 6.47715 22 12 22ZM8.56341 12.8061C7.83792 13.5316 7.83792 14.711 8.56341 15.4365C9.2889 16.162 10.4684 16.162 11.1938 15.4365L12.8909 13.7395L13.697 14.5456L11.9999 16.2426C10.829 17.4136 8.92828 17.4136 7.75731 16.2426C6.58634 15.0717 6.58634 13.171 7.75731 12L9.45436 10.3029L10.2605 11.109L8.56341 12.8061ZM14.1213 10.7272L10.7272 14.1213L9.87863 13.2728L13.2727 9.87867L14.1213 10.7272ZM10.3029 9.4544L11.9999 7.75735C13.1709 6.58638 15.0716 6.58638 16.2426 7.75735C17.4136 8.92832 17.4136 10.829 16.2426 12L14.5455 13.697L13.7394 12.8909L15.4365 11.1939C16.162 10.4684 16.162 9.28894 15.4365 8.56345C14.711 7.83796 13.5315 7.83796 12.806 8.56345L11.109 10.2605L10.3029 9.4544Z"
          fill="#0096EB"/>
</svg>
