<svg width="24" height="24" viewBox="0 0 24 24" fill="none" xmlns="http://www.w3.org/2000/svg">
    <path d="M13.127 14.56L14.557 13.13L20.997 19.573L19.57 21L13.127 14.56ZM17.42 8.83L20.28 5.97C16.33 2.02 9.92998 2.01 5.97998 5.95C9.90998 4.65 14.29 5.7 17.42 8.83ZM5.94998 5.98C2.00998 9.93 2.01998 16.33 5.96998 20.28L8.82998 17.42C5.69998 14.29 4.64998 9.91 5.94998 5.98ZM5.96998 5.96L5.95998 5.97C5.57998 8.98 7.12998 12.85 10.26 15.99L15.99 10.26C12.86 7.13 8.97998 5.58 5.96998 5.96Z"
          fill="#909AB5"/>
</svg>
