<svg width="24" height="24" viewBox="0 0 24 24" fill="none" xmlns="http://www.w3.org/2000/svg">
    <g clip-path="url(#clip0)">
        <path d="M8.11765 18.1923C9.19176 18.1923 10.0524 17.3677 10.0524 16.3462C10.0524 15.3246 9.19176 14.5 8.11765 14.5C7.91059 14.5 7.71 14.5308 7.52882 14.5862C7.89765 15.0846 8.11118 15.6877 8.11118 16.3462C8.11118 17.0046 7.89118 17.6015 7.52882 18.1062C7.71 18.1615 7.91059 18.1923 8.11765 18.1923ZM4.88235 18.1923C5.95647 18.1923 6.81706 17.3677 6.81706 16.3462C6.81706 15.3246 5.95647 14.5 4.88235 14.5C3.80824 14.5 2.94118 15.3246 2.94118 16.3462C2.94118 17.3677 3.80824 18.1923 4.88235 18.1923ZM9.16588 19.0985C9.70294 19.5477 10.0588 20.12 10.0588 20.8462V22.0769H12V20.8462C12 19.8985 10.4665 19.3138 9.16588 19.0985ZM4.88235 19C3.58824 19 1 19.6154 1 20.8462V22.0769H8.76471V20.8462C8.76471 19.6154 6.17647 19 4.88235 19Z"
              fill="#909AB5"/>
        <path fill-rule="evenodd" clip-rule="evenodd"
              d="M12 2C6.5 2 2 6.5 2 12C2 12.974 2.14112 13.9166 2.40393 14.8085C2.93456 14.0106 3.86349 13.5 4.88235 13.5C5.4208 13.5 5.93249 13.6423 6.37333 13.8937L7.23648 13.6298C7.51406 13.545 7.81326 13.5 8.11765 13.5C9.70061 13.5 11.0524 14.7299 11.0524 16.3462C11.0524 17.1216 10.7412 17.8081 10.2426 18.3125C10.692 18.4369 11.1428 18.6026 11.5417 18.8156C12.151 19.1409 13 19.7792 13 20.8462V21.95C18.0351 21.4442 22 17.1626 22 12C22 6.5 17.5 2 12 2ZM6.06583 17.8091C6.05804 17.8148 6.05021 17.8205 6.04233 17.8261C5.91893 17.9142 5.78401 17.9884 5.64001 18.0466M16.2 16.2L11 13V7H12.5V12.2L17 14.9L16.2 16.2Z"
              fill="#909AB5"/>
    </g>
    <defs>
        <clipPath id="clip0">
            <rect width="24" height="24" fill="white"/>
        </clipPath>
    </defs>
</svg>
